<svg width="50" height="50" viewBox="0 0 50 50" fill="none" xmlns="http://www.w3.org/2000/svg">
<path d="M7.4646 0C8.17508 0.0239575 9.10606 0.0479151 10.2575 0.0718726C11.4335 0.0958301 12.6095 0.107809 13.7854 0.107809C15.0104 0.107809 16.1864 0.0958301 17.3134 0.0718726C18.4403 0.0479151 19.2366 0.0359363 19.702 0.0359363C23.0585 0.0359363 25.5574 0.563008 27.1989 1.61715C28.8403 2.6713 29.661 4.02492 29.661 5.67801C29.661 6.51653 29.3548 7.39099 28.7423 8.30139C28.1298 9.18783 27.1989 9.97844 25.9494 10.6732C24.6999 11.344 23.1075 11.7992 21.172 12.0388V12.1107C23.6954 12.2305 25.7166 12.6138 27.2356 13.2607C28.7546 13.9075 29.857 14.6981 30.543 15.6325C31.229 16.5429 31.572 17.4892 31.572 18.4715C31.572 20.0767 31.131 21.3943 30.249 22.4245C29.367 23.4547 28.0931 24.2214 26.4271 24.7245C24.7857 25.2036 22.8257 25.4432 20.5473 25.4432C19.9593 25.4432 19.0896 25.4312 17.9381 25.4073C16.8111 25.3594 15.4514 25.3354 13.8589 25.3354C12.634 25.3354 11.4335 25.3474 10.2575 25.3713C9.10606 25.3713 8.17508 25.3953 7.4646 25.4432V24.7245C8.22408 24.6766 8.78757 24.5807 9.15506 24.437C9.52255 24.2932 9.76754 24.0058 9.89004 23.5745C10.0125 23.1433 10.0738 22.4964 10.0738 21.6339V3.80929C10.0738 2.92285 10.0125 2.27599 9.89004 1.86871C9.76754 1.43747 9.5103 1.14998 9.11831 1.00623C8.75082 0.838523 8.19958 0.742692 7.4646 0.718734V0ZM19.5183 0.718734C18.6853 0.718734 18.1463 0.922376 17.9013 1.32966C17.6563 1.73694 17.5338 2.56349 17.5338 3.80929V21.6339C17.5338 22.4724 17.5951 23.1073 17.7176 23.5386C17.8401 23.9698 18.0728 24.2573 18.4158 24.4011C18.7588 24.5448 19.2611 24.6167 19.9225 24.6167C21.2945 24.6167 22.2867 24.0776 22.8992 22.9995C23.5362 21.8975 23.8547 20.3402 23.8547 18.3277C23.8547 16.483 23.4014 15.0575 22.495 14.0513C21.613 13.045 20.1308 12.5419 18.0483 12.5419H15.3657C15.3657 12.5419 15.3657 12.4461 15.3657 12.2544C15.3657 12.0388 15.3657 11.931 15.3657 11.931H18.5261C19.4815 11.931 20.2165 11.6675 20.731 11.1404C21.2455 10.5894 21.6007 9.87063 21.7967 8.98419C21.9927 8.07379 22.0907 7.1035 22.0907 6.07331C22.0907 4.30043 21.8947 2.97077 21.5027 2.08433C21.1108 1.17393 20.4493 0.718734 19.5183 0.718734Z" fill="#3E40AB"/>
<path d="M27.3581 24.5568C32.503 24.5568 36.3126 25.6349 38.7871 27.7911C41.286 29.9233 42.5355 32.9899 42.5355 36.9909C42.5355 39.6023 41.923 41.8903 40.698 43.8548C39.473 45.7954 37.6968 47.3047 35.3694 48.3828C33.0665 49.4609 30.2858 50 27.0274 50C26.6354 50 26.1086 49.988 25.4471 49.9641C24.8102 49.9401 24.1364 49.9281 23.4259 49.9281C22.7155 49.9042 22.0785 49.8922 21.515 49.8922C20.29 49.8922 19.0896 49.9042 17.9136 49.9281C16.7621 49.9281 15.8311 49.9521 15.1207 50V49.2813C15.8801 49.2333 16.4436 49.1375 16.8111 48.9938C17.1786 48.85 17.4236 48.5625 17.5461 48.1313C17.6686 47.7 17.7298 47.0532 17.7298 46.1907V28.3661C17.7298 27.4796 17.6686 26.8328 17.5461 26.4255C17.4236 25.9942 17.1664 25.7068 16.7744 25.563C16.4069 25.3953 15.8556 25.2995 15.1207 25.2755V24.5568C15.8311 24.5807 16.7621 24.6167 17.9136 24.6646C19.0896 24.6885 20.2655 24.6885 21.4415 24.6646C22.348 24.6406 23.3647 24.6167 24.4917 24.5927C25.6431 24.5688 26.5986 24.5568 27.3581 24.5568ZM27.9093 25.2036C26.7824 25.2036 26.0474 25.4073 25.7044 25.8146C25.3614 26.2218 25.1899 27.0484 25.1899 28.2942V46.2626C25.1899 47.5084 25.3614 48.3349 25.7044 48.7422C26.0719 49.1495 26.8191 49.3531 27.9461 49.3531C29.612 49.3531 30.9473 48.886 31.9517 47.9516C32.9562 46.9933 33.6789 45.6037 34.1199 43.7829C34.5854 41.9621 34.8182 39.746 34.8182 37.1346C34.8182 34.4514 34.5732 32.2353 34.0832 30.4863C33.6177 28.7135 32.8705 27.3958 31.8415 26.5333C30.837 25.6469 29.5263 25.2036 27.9093 25.2036Z" fill="#3E40AB"/>
</svg>
